# Blender v2.79 (sub 0) OBJ File: 'dach.blend'
# www.blender.org
o Dach_Dach.001
v 0.900000 0.040000 -0.900000
v -0.900000 0.040000 0.900000
v -0.900000 0.040000 -0.900000
v 0.900000 0.040000 0.900000
v -0.900000 0.140000 -0.900000
v -0.900000 0.140000 0.900000
v -1.000000 0.140000 -1.000000
v -1.000000 0.000000 1.000000
v -1.000000 0.140000 1.000000
v -1.000000 0.000000 -1.000000
v 0.900000 0.140000 0.900000
v 0.900000 0.140000 -0.900000
v 1.000000 0.000000 -1.000000
v 1.000000 0.140000 -1.000000
v 1.000000 0.140000 1.000000
v 1.000000 0.000000 1.000000
vt 0.375329 0.500000
vt 0.000000 1.000000
vt 0.000000 0.500000
vt 0.000000 0.500000
vt 0.018766 0.025000
vt 0.018767 0.475000
vt 0.375329 0.500000
vt 0.356562 0.475000
vt 0.555487 0.900000
vt 0.536721 0.450000
vt 0.555487 0.450000
vt 0.427875 0.950000
vt 0.401602 0.450000
vt 0.427875 0.450000
vt 0.480421 0.450000
vt 0.454148 0.950000
vt 0.454148 0.450000
vt 0.427875 0.450000
vt 0.454148 0.950000
vt 0.427875 0.950000
vt 0.375329 0.950000
vt 0.401602 0.950000
vt 0.480421 0.450000
vt 0.499188 0.900000
vt 0.480421 0.900000
vt 0.536721 0.450000
vt 0.517954 0.900000
vt 0.517954 0.450000
vt 0.356562 0.025000
vt 0.517954 0.450000
vt 0.517954 0.900000
vt 0.713125 0.450000
vt 0.375329 0.000000
vt 0.713125 0.000000
vt 0.000000 0.000000
vt 0.375329 1.000000
vt 0.536721 0.900000
vt 0.401602 0.950000
vt 0.480421 0.950000
vt 0.454148 0.450000
vt 0.375329 0.450000
vt 0.499188 0.450000
vt 0.536721 0.900000
vt 0.375329 0.000000
vt 0.499188 0.450000
vt 0.375329 0.450000
vn 0.0000 -1.0000 0.0000
vn 0.0000 1.0000 0.0000
vn -1.0000 0.0000 0.0000
vn 0.0000 0.0000 1.0000
vn 0.0000 0.0000 -1.0000
vn 1.0000 0.0000 0.0000
s off
f 16/1/1 10/2/1 13/3/1
f 9/4/2 11/5/2 6/6/2
f 7/7/2 6/6/2 5/8/2
f 4/9/3 12/10/3 1/11/3
f 9/12/4 16/13/4 15/14/4
f 10/15/3 9/16/3 7/17/3
f 14/18/5 10/19/5 7/20/5
f 14/21/6 16/13/6 13/22/6
f 6/23/6 3/24/6 5/25/6
f 4/26/5 6/27/5 11/28/5
f 12/29/2 7/7/2 5/8/2
f 3/24/4 12/30/4 5/31/4
f 3/32/2 4/33/2 1/34/2
f 15/35/2 12/29/2 11/5/2
f 16/1/1 8/36/1 10/2/1
f 9/4/2 15/35/2 11/5/2
f 7/7/2 9/4/2 6/6/2
f 4/9/3 11/37/3 12/10/3
f 9/12/4 8/38/4 16/13/4
f 10/15/3 8/39/3 9/16/3
f 14/18/5 13/40/5 10/19/5
f 14/21/6 15/41/6 16/13/6
f 6/23/6 2/42/6 3/24/6
f 4/26/5 2/43/5 6/27/5
f 12/29/2 14/44/2 7/7/2
f 3/24/4 1/45/4 12/30/4
f 3/32/2 2/46/2 4/33/2
f 15/35/2 14/44/2 12/29/2
