# Blender v2.79 (sub 0) OBJ File: 'roadcross.blend'
# www.blender.org
o Mesh1_Model
v 0.750000 0.000000 -1.000000
v 0.750000 0.000000 -0.750000
v 1.000000 0.000000 -0.750000
v 1.000000 -0.000000 0.750000
v 0.750000 -0.000000 0.750000
v 0.750000 -0.000000 1.000000
v -0.750000 -0.000000 1.000000
v -0.750000 -0.000000 0.750000
v -1.000000 -0.000000 0.750000
v -1.000000 0.000000 -0.750000
v -0.750000 0.000000 -0.750000
v -0.750000 0.000000 -1.000000
v 0.750000 0.050000 -0.800000
v 0.750000 0.050000 -0.750000
v 0.750000 0.050000 -1.000000
v 0.800000 0.050000 -0.800000
v 0.800000 0.050000 -0.750000
v 0.800000 0.050000 -1.000000
v 1.000000 0.050000 -0.800000
v 1.000000 0.050000 -1.000000
v 1.000000 0.050000 -0.750000
v 1.000000 0.050000 0.750000
v 0.800000 0.050000 0.750000
v 0.750000 0.050000 0.750000
v 1.000000 0.050000 0.800000
v 0.800000 0.050000 0.800000
v 0.800000 0.050000 1.000000
v 1.000000 0.050000 1.000000
v 0.750000 0.050000 0.800000
v 0.750000 0.050000 1.000000
v -0.750000 0.050000 1.000000
v -0.750000 0.050000 0.750000
v -0.750000 0.050000 0.800000
v -1.000000 0.050000 0.750000
v -0.800000 0.050000 0.750000
v -1.000000 0.050000 0.800000
v -0.800000 0.050000 0.800000
v -0.800000 0.050000 1.000000
v -1.000000 0.050000 1.000000
v -1.000000 0.050000 -0.750000
v -0.800000 0.050000 -0.750000
v -0.750000 0.050000 -0.750000
v -1.000000 0.050000 -0.800000
v -0.800000 0.050000 -0.800000
v -0.800000 0.050000 -1.000000
v -1.000000 0.050000 -1.000000
v -0.750000 0.050000 -0.800000
v -0.750000 0.050000 -1.000000
vt 0.119141 0.119141
vt 0.123047 0.875000
vt 0.876953 0.875000
vt 0.900391 0.875000
vt 0.876953 0.902344
vt 1.000000 0.875000
vt 0.123047 0.875000
vt 0.095703 0.902344
vt 0.123053 0.902344
vt 0.123047 1.000000
vt 0.095703 1.000000
vt 0.000000 1.000000
vt 0.000000 0.902344
vt 0.000000 0.875000
vt 0.095703 0.875000
vt 0.878906 0.095703
vt 0.902344 0.119141
vt 0.902344 0.000000
vt 0.878906 0.119141
vt 0.902344 0.119141
vt 0.902344 0.095703
vt 0.000000 0.119141
vt 0.097656 0.097656
vt 0.000000 0.097656
vt 0.000000 0.000000
vt 0.097656 0.000000
vt 0.119141 0.000000
vt 0.119141 0.097656
vt 0.097656 0.119141
vt 0.119141 0.119141
vt 0.902344 0.023438
vt 0.878906 0.000000
vt 0.878906 0.119141
vt 0.878906 0.000000
vt 0.902344 0.000000
vt 0.902344 0.023438
vt 0.902344 0.119141
vt 0.878906 0.119141
vt 0.878906 0.023438
vt 0.902344 0.095703
vt 1.000000 0.119141
vt 1.000000 0.095703
vt 1.000000 0.000000
vt 0.902344 0.000000
vt 0.878906 0.000000
vt 0.878906 0.095703
vt 0.878906 0.119141
vt 0.902344 0.119141
vt 0.902344 0.000000
vt 0.878906 0.000000
vt 0.878906 0.023438
vt 1.000000 0.875000
vt 0.900391 0.902344
vt 1.000000 0.902344
vt 1.000000 1.000000
vt 0.900391 1.000000
vt 0.876953 1.000000
vt 0.876953 0.902344
vt 0.876953 0.875000
vt 0.900391 0.875000
vt 0.878906 0.119141
vt 0.902344 0.119141
vt 0.902344 0.023438
vt 1.000000 0.119141
vt 0.878906 0.119141
vt 0.878906 0.000000
vt 0.119141 0.000000
vt 0.123047 1.000000
vt 0.876953 1.000000
vt 0.000000 0.119141
vt 0.000000 0.875000
vt 0.876953 0.875000
vt 1.000000 0.902344
vt 0.878906 0.000000
vt 0.878906 0.119141
vt 0.902344 0.000000
vt 0.878906 0.000000
vt 0.902344 0.119141
vt 0.902344 0.000000
vt 0.902344 0.119141
vt 0.878906 0.119141
vt 0.878906 0.000000
vt 0.902344 0.000000
vt 0.878906 0.119141
vt 0.902344 0.119141
vt 0.902344 0.000000
vt 0.878906 0.000000
vn 0.3015 0.9045 -0.3015
vn 0.0000 1.0000 0.0000
vn -1.0000 0.0000 0.0000
vn 0.0000 0.0000 1.0000
vn 0.0000 0.0000 -1.0000
vn 1.0000 0.0000 0.0000
vn 0.0000 0.7071 -0.7071
vn 0.7071 0.7071 0.0000
s 1
f 8/1/1 5/2/2 2/3/2
f 2/4/3 13/5/3 1/6/3
f 14/7/2 16/8/2 13/9/2
f 15/10/2 16/8/2 18/11/2
f 20/12/2 16/8/2 19/13/2
f 21/14/2 16/8/2 17/15/2
f 17/16/4 2/17/4 3/18/4
f 5/19/5 24/20/5 23/21/5
f 22/22/2 26/23/2 25/24/2
f 28/25/2 26/23/2 27/26/2
f 30/27/2 26/23/2 29/28/2
f 29/28/2 23/29/2 24/30/2
f 29/31/3 5/32/3 6/33/3
f 8/34/1 32/35/6 33/36/6
f 9/37/7 34/38/5 35/39/5
f 37/40/2 34/41/2 36/42/2
f 37/40/2 39/43/2 38/44/2
f 37/40/2 31/45/2 33/46/2
f 37/40/2 32/47/2 35/48/2
f 11/49/4 42/50/4 41/51/4
f 40/52/2 44/53/2 43/54/2
f 46/55/2 44/53/2 45/56/2
f 48/57/2 44/53/2 47/58/2
f 42/59/2 44/53/2 41/60/2
f 12/61/6 48/62/6 47/63/6
f 2/3/2 1/6/2 12/64/2
f 11/65/2 10/66/2 9/67/7
f 2/3/2 12/64/2 11/65/2
f 4/68/2 3/69/2 2/3/2
f 7/70/8 6/71/2 5/2/2
f 5/2/2 4/68/2 2/3/2
f 2/3/2 11/65/2 8/1/1
f 11/65/2 9/67/7 8/1/1
f 8/1/1 7/70/8 5/2/2
f 14/72/3 13/5/3 2/4/3
f 13/5/3 15/73/3 1/6/3
f 14/7/2 17/15/2 16/8/2
f 15/10/2 13/9/2 16/8/2
f 20/12/2 18/11/2 16/8/2
f 21/14/2 19/13/2 16/8/2
f 3/18/4 21/74/4 17/16/4
f 17/16/4 14/75/4 2/17/4
f 22/76/5 4/77/5 23/21/5
f 4/77/5 5/19/5 23/21/5
f 22/22/2 23/29/2 26/23/2
f 28/25/2 25/24/2 26/23/2
f 30/27/2 27/26/2 26/23/2
f 29/28/2 26/23/2 23/29/2
f 6/33/3 30/78/3 29/31/3
f 29/31/3 24/79/3 5/32/3
f 33/36/6 31/80/6 7/81/8
f 7/81/8 8/34/1 33/36/6
f 35/39/5 32/82/5 8/83/1
f 8/83/1 9/37/7 35/39/5
f 37/40/2 35/48/2 34/41/2
f 37/40/2 36/42/2 39/43/2
f 37/40/2 38/44/2 31/45/2
f 37/40/2 33/46/2 32/47/2
f 41/51/4 40/84/4 10/85/4
f 10/85/4 11/49/4 41/51/4
f 40/52/2 41/60/2 44/53/2
f 46/55/2 43/54/2 44/53/2
f 48/57/2 45/56/2 44/53/2
f 42/59/2 47/58/2 44/53/2
f 47/63/6 42/86/6 11/87/6
f 11/87/6 12/61/6 47/63/6
