# Blender v2.79 (sub 0) OBJ File: 'roadlong.blend'
# www.blender.org
o Mesh1_Model
v 2.000000 -0.000000 0.750000
v 0.000000 -0.000000 0.750000
v 0.000000 0.000000 0.000000
v 0.000000 0.000000 -0.750000
v 2.000000 0.000000 -0.750000
v 0.000000 0.050000 0.750000
v 2.000000 0.050000 0.750000
v -2.000000 -0.000000 0.750000
v -2.000000 0.050000 0.750000
v -2.000000 0.000000 -0.750000
v 0.000000 0.050000 -0.750000
v -2.000000 0.050000 -0.750000
v 2.000000 0.050000 -0.750000
v 0.000000 0.050000 -0.800000
v 2.000000 0.050000 -0.800000
v 0.000000 0.050000 -1.000000
v 2.000000 0.050000 -1.000000
v -2.000000 0.050000 -1.000000
v -2.000000 0.050000 -0.800000
v 0.000000 0.050000 0.800000
v -2.000000 0.050000 0.800000
v 0.000000 0.050000 1.000000
v -2.000000 0.050000 1.000000
v 2.000000 0.050000 1.000000
v 2.000000 0.050000 0.800000
vt 0.000000 0.119141
vt 1.000000 0.119141
vt 1.000000 0.500000
vt 0.000000 0.119141
vt 1.000000 0.095703
vt 1.000000 0.119141
vt 0.000000 0.119141
vt 0.000000 0.095703
vt 0.000000 0.876953
vt 1.000000 0.876953
vt 0.000000 0.876953
vt 1.000000 0.900391
vt 1.000000 0.876953
vt 0.000000 0.876953
vt 0.000000 0.900391
vt 0.000000 0.900391
vt 1.000000 0.900391
vt 0.000000 1.000000
vt 1.000000 1.000000
vt 0.000000 0.900391
vt 0.000000 1.000000
vt 0.000000 0.095703
vt 1.000000 0.095703
vt 1.000000 0.000000
vt 0.000000 0.095703
vt 0.000000 0.000000
vt 0.000000 0.876953
vt 0.000000 0.095703
vt 0.000000 0.119141
vt 0.000000 0.900391
vt 0.000000 0.000000
vn 0.0000 1.0000 0.0000
vn 0.0000 0.0000 -1.0000
vn 0.0000 0.0000 1.0000
s 1
f 5/1/1 4/2/1 3/3/1
f 7/4/2 2/5/2 6/6/2
f 9/7/2 2/5/2 8/8/2
f 8/9/1 2/10/1 3/3/1
f 12/11/3 4/12/3 11/13/3
f 13/14/3 4/12/3 5/15/3
f 11/13/1 15/16/1 14/17/1
f 14/17/1 17/18/1 16/19/1
f 19/20/1 16/19/1 18/21/1
f 12/11/1 14/17/1 19/20/1
f 6/6/1 21/22/1 20/23/1
f 21/22/1 22/24/1 20/23/1
f 25/25/1 22/24/1 24/26/1
f 25/25/1 6/6/1 20/23/1
f 2/10/1 1/27/1 3/3/1
f 1/27/1 5/1/1 3/3/1
f 7/4/2 1/28/2 2/5/2
f 9/7/2 6/6/2 2/5/2
f 3/3/1 4/2/1 10/29/1
f 10/29/1 8/9/1 3/3/1
f 12/11/3 10/30/3 4/12/3
f 13/14/3 11/13/3 4/12/3
f 11/13/1 13/14/1 15/16/1
f 14/17/1 15/16/1 17/18/1
f 19/20/1 14/17/1 16/19/1
f 12/11/1 11/13/1 14/17/1
f 6/6/1 9/7/1 21/22/1
f 21/22/1 23/31/1 22/24/1
f 25/25/1 20/23/1 22/24/1
f 25/25/1 7/4/1 6/6/1
